<svg xmlns="http://www.w3.org/2000/svg" version="1.1" xmlns:xlink="http://www.w3.org/1999/xlink" xmlns:svgjs="http://svgjs.dev/svgjs" width="1500" height="935" viewBox="0 0 1500 935"><g transform="matrix(1,0,0,1,-0.9090909090909918,0.3785425101214628)"><svg viewBox="0 0 396 247" data-background-color="#ffffff" preserveAspectRatio="xMidYMid meet" height="935" width="1500" xmlns="http://www.w3.org/2000/svg" xmlns:xlink="http://www.w3.org/1999/xlink"><g id="tight-bounds" transform="matrix(1,0,0,1,0.2400000000000091,-0.09999999999999432)"><svg viewBox="0 0 395.52 247.2" height="247.2" width="395.52"><g><svg></svg></g><g><svg viewBox="0 0 395.52 247.2" height="247.2" width="395.52"><g><path d="M55.039 247.2l26.403-45.732h5.488l-23.509 40.719h268.678l-23.509-40.719 5.488 0 26.403 45.732zM197.76 0l26.403 45.732-5.487 0-20.916-36.227-20.916 36.227-5.487 0z" fill="#dedede" fill-rule="nonzero" stroke="none" stroke-width="1" stroke-linecap="butt" stroke-linejoin="miter" stroke-miterlimit="10" stroke-dasharray="" stroke-dashoffset="0" font-family="none" font-weight="none" font-size="none" text-anchor="none" style="mix-blend-mode: normal" data-fill-palette-color="tertiary"></path></g><g transform="matrix(1,0,0,1,26.15940977465371,67.97999999999999)"><svg viewBox="0 0 343.20118045069256 111.24" height="111.24" width="343.20118045069256"><g><svg viewBox="0 0 474.30403138285715 153.73368" height="111.24" width="343.20118045069256"><g transform="matrix(1,0,0,1,0,21.246840000000006)"><svg viewBox="0 0 294.3092571428571 111.23999999999998" height="111.23999999999998" width="294.3092571428571"><g id="textblocktransform"><svg viewBox="0 0 294.3092571428571 111.23999999999998" height="111.23999999999998" width="294.3092571428571" id="textblock"><g><svg viewBox="0 0 294.3092571428571 111.23999999999998" height="111.23999999999998" width="294.3092571428571"><g transform="matrix(1,0,0,1,0,0)"><svg width="294.3092571428571" viewBox="6.5 -35 92.59 35" height="111.23999999999998" data-palette-color="#aaaaaa"><path d="M6.5 0L6.5-35 13.2-35Q18.5-35 21.43-32.77 24.35-30.55 24.35-26.55L24.35-26.55Q24.35-23.45 22.53-21.4 20.7-19.35 17.25-18.65L17.25-18.65 17.25-18.35Q20.55-17.7 22.65-15.25 24.75-12.8 25.8-9.2L25.8-9.2Q26.75-5.9 27.68-4.08 28.6-2.25 29.73-1.45 30.85-0.65 32.4-0.3L32.4-0.3 32.4 0 30.35 0Q28.15 0 26.73-0.8 25.3-1.6 24.3-3.5 23.3-5.4 22.4-8.75L22.4-8.75Q20.95-13.9 18.55-16.05 16.15-18.2 12.7-18.2L12.7-18.2 12.4-18.2 12.4-19.1 12.7-19.1Q20.75-19.1 20.75-26.5L20.75-26.5Q20.75-33.8 13.2-33.8L13.2-33.8 9.9-33.8 9.9 0 6.5 0ZM38.55 0L34.9 0 48.35-35 51.45-35 64.9 0 61.25 0 55.05-16.4 43.7-16.4 38.55 0ZM49-32.4L48.7-32.4 44.05-17.6 54.6-17.6 49-32.4ZM99.09 0L94.59 0 78.2-17.95 93.4-35 97.7-35 81.25-19.35 99.09 0ZM76.4 0L73 0 73-35 76.4-35 76.4 0Z" opacity="1" transform="matrix(1,0,0,1,0,0)" fill="#aaaaaa" class="wordmark-text-0" data-fill-palette-color="primary" id="text-0"></path></svg></g></svg></g></svg></g></svg></g><g transform="matrix(1,0,0,1,320.5703513828571,0)"><svg viewBox="0 0 153.73368 153.73368" height="153.73368" width="153.73368"><g><svg xmlns="http://www.w3.org/2000/svg" xmlns:xlink="http://www.w3.org/1999/xlink" version="1.1" baseProfile="tiny" x="0" y="0" viewBox="0 0 100 100" xml:space="preserve" height="153.73368" width="153.73368" class="icon-icon-0" data-fill-palette-color="accent" id="icon-0"><path d="M100 52.993v-6.004H53.466v-3.947h45.905c0 0-3.666-37.641-41.991-42.47v34.642h31.661c0 0-5.333-14.49-13.331-17.821v11.992H63.546V8.566c0 0 22.161 3.165 29.327 29.313l-39.407-0.232V0h-6.005v37.611L8.058 37.379c0 0 5.331-23.317 29.826-29.812l-0.333 21.818H25.554V17.061c0 0-9.998 4.996-13.997 18.154H43.05V0.739c0 0-37.326 5.496-42.491 42.303h46.902v3.947H0v6.004h47.461v4.537H0.642c5.166 36.806 42.492 42.302 42.492 42.302V65.357H11.64c3.999 13.158 13.997 18.154 13.997 18.154V71.187h11.998l0.333 21.818C13.473 86.51 8.141 63.192 8.141 63.192l39.32-0.231v36.988h6.005V62.925l39.49-0.231c-7.165 26.147-29.327 29.313-29.327 29.313V71.187h12.165v11.991c7.998-3.33 13.33-17.819 13.33-17.819H57.463V100c38.326-4.829 41.992-42.47 41.992-42.47H53.466v-4.537H100z" fill="#9be4af" data-fill-palette-color="accent"></path></svg></g></svg></g></svg></g></svg></g></svg></g><defs></defs></svg><rect width="395.52" height="247.2" fill="none" stroke="none" visibility="hidden"></rect></g></svg></g></svg>